# xmcd CD database file
#
# Track frame offsets:
#	150
#	5947
#	25065
#	42400
#	67695
#	86130
#	107125
#	126835
#	146130
#	166980
#	187435
#	204840
#
# Disc length: 3008 seconds
#
# Revision: 2
# Processed by: cddbd v1.5.2PL0 Copyright (c) Steve Scherf et al.
# Submitted via: CDex 1.51
#
DISCID=ac0bbe0c
DTITLE=Monteco - Soulschool
DYEAR=1995
DGENRE=R&B
TTITLE0=Intro
TTITLE1=Is it me?
TTITLE2=Call it what you want
TTITLE3=Round and round
TTITLE4=Summerday
TTITLE5=Good thing
TTITLE6=Do you right
TTITLE7=Down to the bone
TTITLE8=Never ending
TTITLE9=Be with you
TTITLE10=Something
TTITLE11=Is it me? (Hip Hop classy mix)
EXTD=YEAR: 1995
EXTT0=
EXTT1=
EXTT2=
EXTT3=
EXTT4=
EXTT5=
EXTT6=
EXTT7=
EXTT8=
EXTT9=
EXTT10=
EXTT11=
PLAYORDER=
